<svg xmlns="http://www.w3.org/2000/svg" xmlns:xlink="http://www.w3.org/1999/xlink"><symbol id="instagram"><path d="M28 0H4C1.8 0 0 1.8 0 4v8h32V4c0-2.2-1.8-4-4-4z" fill="#895a4d"/><path d="M2 .6V12h2V0c-.7 0-1.4.2-2 .6z" fill="#ff3939"/><path fill="#fed049" d="M4 0h2v12H4z"/><path fill="#10dd76" d="M6 0h2v12H6z"/><path fill="#5fccff" d="M8 0h2v12H8z"/><circle cx="26" cy="6" r="3" fill="#162838"/><circle cx="26" cy="6" r="1.5" fill="#2c4356"/><circle cx="26" cy="6" r=".5" fill="#47637a"/><path d="M0 12v16c0 2.2 1.8 4 4 4h24c2.2 0 4-1.8 4-4V12H0z" fill="#e5e0dc"/><path fill="#75483d" d="M24.7 12l-2.3-2.4V12z"/><path d="M20 12L9.6 22.4l9.6 9.6H28c2.2 0 4-1.8 4-4v-8.7L24.7 12H20z" fill="#d0cbc5"/><circle cx="16" cy="16" r="9" fill="#dcd7d3"/><circle cx="16" cy="16" r="7" fill="#162838"/><circle cx="16" cy="16" r="4" fill="#2c4356"/><circle cx="16" cy="16" r="2" fill="#162838"/><circle cx="18.5" cy="13.5" r="1.5" fill="#47637a"/></symbol><symbol id="vkontakte" viewBox="0 0 64 64"><g data-name="32-vk"><rect height="64" rx="11.2" ry="11.2" width="64" fill="#4489c8"/><path d="M9.62 19.77h7.68a.79.79 0 0 1 .74.51c.85 2.19 4.38 10.76 7.61 11.46 2.4 0 1.55-11.4-1.5-11.4-.8 0 1.42-1.42 1.57-1.48a16.38 16.38 0 0 1 8.66 0c1.53.64 1.79 2.43 1.83 3.95s-1.7 8 .59 8.7c3 .92 6.86-8.49 7.76-10.8a.79.79 0 0 1 .74-.5h8.55a.8.8 0 0 1 .74 1.11 74.74 74.74 0 0 1-6.31 11.52 1.59 1.59 0 0 0 .16 2C51 37.58 58 45.34 54 45.34h-8.63a1.57 1.57 0 0 1-1.18-.53c-1.34-1.48-5.24-5.6-7-5.27-1.46.27-1.6 2.75-1.53 4.37a1.6 1.6 0 0 1-1.48 1.68c-1.53.09-3.62.13-3.81.12-6.1-.39-9.71-4.46-13.16-9a56.33 56.33 0 0 1-8.35-15.88.81.81 0 0 1 .76-1.06z" fill="#fff"/></g></symbol></svg>